<svg width="38" height="38" viewBox="0 0 38 38" fill="none" xmlns="http://www.w3.org/2000/svg">
<g id="solar:file-download-bold">
<path id="Vector" d="M30.6433 12.0584L24.3733 6.41694C22.5889 4.80985 21.6974 4.00552 20.6002 3.58594L20.5859 7.91477C20.5859 11.6467 20.5859 13.5134 21.7449 14.6724C22.9039 15.8314 24.7707 15.8314 28.5026 15.8314H34.1709C33.5978 14.7168 32.5686 13.7921 30.6433 12.0584Z" fill="white"/>
<path id="Vector_2" fill-rule="evenodd" clip-rule="evenodd" d="M15.8307 34.8346H22.1641C28.1348 34.8346 31.121 34.8346 32.9751 32.979C34.8291 31.1233 34.8307 28.1387 34.8307 22.168V21.4761C34.8307 20.0938 34.8307 19.0551 34.7626 18.2096H28.347C26.6101 18.2096 25.0742 18.2096 23.8376 18.0434C22.4966 17.8629 21.1555 17.4496 20.0614 16.3556C18.9657 15.2599 18.5525 13.9188 18.372 12.5777C18.2057 11.3411 18.2057 9.80689 18.2057 8.06839L18.2216 3.58122C18.2216 3.45033 18.2321 3.32155 18.2532 3.19489C17.6056 3.16797 16.8377 3.16797 15.8782 3.16797C9.87581 3.16797 6.87381 3.16797 5.01973 5.02364C3.16406 6.87772 3.16406 9.86389 3.16406 15.8346V22.168C3.16406 28.1387 3.16406 31.1249 5.01973 32.979C6.8754 34.8331 9.85998 34.8346 15.8307 34.8346ZM12.6435 30.1591C12.8636 30.3654 13.154 30.4803 13.4557 30.4803C13.7575 30.4803 14.0479 30.3654 14.268 30.1591L17.4346 27.1903C17.659 26.9736 17.7891 26.6773 17.7968 26.3655C17.8045 26.0537 17.6892 25.7514 17.4758 25.5238C17.2624 25.2963 16.9681 25.1619 16.6565 25.1496C16.3448 25.1373 16.0408 25.2481 15.8101 25.4581L14.6432 26.5506V21.3763C14.6432 21.0614 14.5181 20.7593 14.2954 20.5366C14.0727 20.3139 13.7707 20.1888 13.4557 20.1888C13.1408 20.1888 12.8387 20.3139 12.616 20.5366C12.3933 20.7593 12.2682 21.0614 12.2682 21.3763V26.5522L11.1013 25.4581C10.8707 25.2481 10.5667 25.1373 10.255 25.1496C9.94334 25.1619 9.64901 25.2963 9.43564 25.5238C9.22227 25.7514 9.10698 26.0537 9.11468 26.3655C9.12239 26.6773 9.25246 26.9736 9.47681 27.1903L12.6435 30.1591Z" fill="white"/>
</g>
</svg>
