<svg width="70" height="70" viewBox="0 0 70 70" fill="none" xmlns="http://www.w3.org/2000/svg">
<g id="Group">
<path id="Vector" d="M53.5938 0H16.4062C7.34533 0 0 7.34533 0 16.4062V53.5938C0 62.6547 7.34533 70 16.4062 70H53.5938C62.6547 70 70 62.6547 70 53.5938V16.4062C70 7.34533 62.6547 0 53.5938 0Z" fill="#242938"/>
<path id="Vector_2" d="M32.7792 8.50734C34.1242 7.73761 35.8759 7.73405 37.2195 8.50734C43.9795 12.3273 50.7416 16.1409 57.5004 19.963C58.7719 20.6791 59.622 22.0939 59.6092 23.5587V46.5398C59.6187 48.0653 58.6844 49.5139 57.3432 50.2137C50.6054 54.0125 43.8709 57.8158 37.1342 61.6146C35.7618 62.3994 33.9749 62.339 32.6449 61.4897C30.6251 60.3188 28.6016 59.1534 26.5815 57.9837C26.1686 57.7376 25.7032 57.5418 25.4117 57.1415C25.6695 56.7942 26.1303 56.751 26.5046 56.5992C27.3476 56.331 28.1223 55.9006 28.8967 55.4831C29.0927 55.3491 29.3317 55.4005 29.5195 55.5203C31.2468 56.5107 32.9591 57.53 34.6922 58.5108C35.0618 58.7244 35.4362 58.4408 35.7523 58.2648C42.364 54.5277 48.9839 50.8051 55.5948 47.0669C55.8398 46.9491 55.9752 46.6891 55.9552 46.4208C55.9599 38.8398 55.9563 31.2576 55.9577 23.6763C55.9856 23.3722 55.8095 23.0922 55.5341 22.9675C48.8199 19.1862 42.1086 15.3993 35.3954 11.6171C35.2791 11.5372 35.1414 11.4943 35.0003 11.4941C34.8591 11.4939 34.7212 11.5363 34.6047 11.6158C27.8912 15.3993 21.1816 19.19 14.4682 22.9708C14.1939 23.0958 14.0099 23.3711 14.0424 23.6763C14.0438 31.2576 14.0424 38.8398 14.0424 46.4219C14.0307 46.5529 14.0594 46.6843 14.1248 46.7984C14.1901 46.9126 14.2889 47.0039 14.4077 47.0601C16.199 48.0759 17.9928 49.0846 19.7854 50.0972C20.7955 50.6405 22.0353 50.9637 23.1482 50.5473C24.1298 50.1951 24.8181 49.1929 24.7995 48.1506C24.8088 40.6138 24.7948 33.076 24.8063 25.54C24.7817 25.2056 25.0992 24.9292 25.4245 24.9609C26.2853 24.9549 27.1472 24.9491 28.008 24.9631C28.3673 24.9549 28.6145 25.3153 28.5702 25.6521C28.5666 33.2367 28.5795 40.8214 28.5644 48.4057C28.5666 50.4272 27.7362 52.6267 25.8664 53.6158C23.5633 54.8088 20.7162 54.5558 18.4407 53.4118C16.4708 52.4285 14.5907 51.268 12.6558 50.2148C11.3111 49.5189 10.3814 48.0644 10.391 46.54V23.5587C10.3767 22.0635 11.261 20.6231 12.5716 19.9173C19.3083 16.1157 26.0439 12.3109 32.7792 8.50734Z" fill="#81CD39"/>
<path id="Vector_3" d="M38.6537 24.428C41.5918 24.2388 44.7371 24.3159 47.381 25.7635C49.4282 26.8725 50.563 29.2006 50.5991 31.4748C50.5419 31.7813 50.2212 31.9505 49.9283 31.9295C49.076 31.9284 48.2232 31.9412 47.3709 31.9237C47.0091 31.9377 46.7991 31.6044 46.7537 31.2847C46.5087 30.1964 45.9151 29.1188 44.891 28.5938C43.3188 27.8069 41.496 27.8465 39.7816 27.8629C38.5301 27.9291 37.1842 28.0376 36.1238 28.7735C35.3098 29.331 35.0626 30.4565 35.353 31.3629C35.627 32.0137 36.3781 32.2237 36.9931 32.4173C40.5338 33.3434 44.2859 33.251 47.7591 34.4697C49.1971 34.9665 50.6037 35.9326 51.0959 37.4381C51.7398 39.4561 51.4577 41.8678 50.0218 43.4877C48.8575 44.8207 47.1619 45.5464 45.4707 45.9404C43.2209 46.4422 40.886 46.455 38.6012 46.2322C36.4528 45.9872 34.2169 45.4228 32.5585 43.9591C31.1402 42.7275 30.4475 40.8085 30.5162 38.9568C30.5326 38.644 30.844 38.4258 31.1437 38.4515C32.002 38.4447 32.8606 38.4422 33.7189 38.4529C34.0621 38.4283 34.3161 38.7247 34.3339 39.0479C34.4919 40.0845 34.8816 41.1728 35.7859 41.7872C37.5304 42.9129 39.7198 42.8358 41.7175 42.8673C43.3726 42.794 45.2307 42.7718 46.5812 41.6778C47.2937 41.0538 47.5048 40.0098 47.3123 39.1119C47.1037 38.3536 46.3105 38.0003 45.6293 37.7693C42.134 36.6638 38.3398 37.0649 34.8783 35.8145C33.4728 35.3179 32.1139 34.3789 31.5741 32.9352C30.8208 30.8918 31.1659 28.3641 32.7521 26.7992C34.2986 25.242 36.531 24.6424 38.6537 24.428Z" fill="#81CD39"/>
</g>
</svg>
