<svg width="75" height="75" viewBox="0 0 75 75" fill="none" xmlns="http://www.w3.org/2000/svg">
<g id="Group">
<path id="Vector" d="M60.8628 5.38704L23.9682 0.16434C14.9787 -1.1082 6.6596 5.14768 5.38706 14.1372L0.164364 51.0318C-1.10817 60.0214 5.1477 68.3404 14.1373 69.613L51.0318 74.8357C60.0214 76.1082 68.3404 69.8523 69.613 60.8628L74.8357 23.9682C76.1082 14.9786 69.8523 6.65957 60.8628 5.38704Z" fill="#0277BD"/>
<path id="Vector_2" d="M18.3304 27.7734L17.8802 36.5486L37.2718 39.2936L38.4985 30.6283L18.3304 27.7734ZM40.981 13.0895L19.2525 10.0137L18.8137 18.7905L39.7543 21.7548L40.981 13.0895ZM34.0363 62.1487L35.3125 53.1331L35.2731 53.1378L25.9913 49.166L26.3527 42.1674L17.654 40.9361L16.942 54.7139L33.9948 62.1542L34.0363 62.1487Z" fill="#EBEBEB"/>
<path id="Vector_3" d="M47.9127 40.8005L45.3159 51.8963L35.2822 53.1369L34.006 62.1519L52.4674 59.7433L52.8049 58.2977L58.0705 35.7731L58.6112 33.476L62.6584 16.1587L40.9517 13.0859L39.725 21.7513L51.9352 23.4797L49.8908 32.2415L38.4689 30.6247L37.2423 39.29L47.9127 40.8005Z" fill="white"/>
</g>
</svg>
