<svg width="92" height="92" viewBox="0 0 92 92" fill="none" xmlns="http://www.w3.org/2000/svg">
<g id="vscode-icons:file-type-html" clip-path="url(#clip0_1_32)">
<path id="Vector" d="M16.3173 65.607L26.087 6.72663L82.4717 21.3256L62.4346 77.5378L37.6889 77.9611L16.3173 65.607Z" fill="#E44F26"/>
<path id="Vector_2" d="M38.9936 73.0782L58.9907 72.7364L76.1117 24.7001L53.0646 18.7328L38.9936 73.0782Z" fill="#F1662A"/>
<path id="Vector_3" d="M47.539 40.0759L38.1986 37.6575L39.426 30.2628L49.4104 32.848L51.2381 25.789L33.5393 21.2065L33.2176 23.1457L29.9149 43.0449L45.7113 47.1348L47.539 40.0759ZM42.7927 58.4072L42.7583 58.4081L35.4471 54.2513L36.4022 48.4919L29.3159 46.6571L27.4358 57.9937L40.8567 65.7525L40.8911 65.7516L42.7927 58.4072Z" fill="#EBEBEB"/>
<path id="Vector_4" d="M47.5095 40.0703L45.6818 47.1293L54.3736 49.3797L51.1856 58.3234L42.7615 58.4085L40.8599 65.7529L56.3706 65.4874L56.7843 64.3225L63.2536 46.1693L63.918 44.3188L47.5095 40.0703ZM51.2087 25.7835L49.381 32.8424L66.4311 37.257L66.9831 35.7087L68.2316 32.2135L68.8914 30.3618L51.2087 25.7835Z" fill="white"/>
</g>
<defs>
<clipPath id="clip0_1_32">
<rect width="75.2624" height="75.2624" fill="white" transform="translate(18.9213) scale(1.003) rotate(14.5161)"/>
</clipPath>
</defs>
</svg>
