<svg width="56" height="76" viewBox="0 0 56 76" fill="none" xmlns="http://www.w3.org/2000/svg">
<g id="logos:figma" clip-path="url(#clip0_1_37)">
<path id="Vector" d="M20.7326 74.4876C27.168 73.6527 31.7132 67.7522 30.8783 61.3168L29.3657 49.6585L17.7075 51.171C11.2721 52.006 6.72679 57.9065 7.56172 64.3419C8.39666 70.7773 14.2972 75.3226 20.7326 74.4876Z" fill="#0ACF83"/>
<path id="Vector_2" d="M4.53659 41.0224C3.70165 34.587 8.24694 28.6865 14.6823 27.8516L26.3406 26.339L29.3657 49.6556L17.7074 51.1682C11.2721 52.0031 5.37152 47.4578 4.53659 41.0224Z" fill="#A259FF"/>
<path id="Vector_3" d="M1.50935 17.7068C0.674418 11.2715 5.21971 5.37092 11.6551 4.53598L23.3134 3.02342L26.3385 26.34L14.6802 27.8526C8.24483 28.6875 2.34429 24.1422 1.50935 17.7068Z" fill="#F24E1E"/>
<path id="Vector_4" d="M23.3124 3.02131L34.9707 1.50875C41.4061 0.673812 47.3067 5.2191 48.1416 11.6545C48.9765 18.0899 44.4312 23.9904 37.9959 24.8253L26.3376 26.3379L23.3124 3.02131Z" fill="#FF7262"/>
<path id="Vector_5" d="M51.1667 34.974C52.0017 41.4093 47.4564 47.3099 41.021 48.1448C34.5856 48.9797 28.6851 44.4345 27.8501 37.9991C27.0152 31.5637 31.5605 25.6632 37.9959 24.8282C44.4312 23.9933 50.3318 28.5386 51.1667 34.974Z" fill="#1ABCFE"/>
</g>
<defs>
<clipPath id="clip0_1_37">
<rect width="46.4891" height="69.7336" fill="white" transform="matrix(1.0031 -0.130143 0.130143 1.0031 0 6.05027)"/>
</clipPath>
</defs>
</svg>
