<svg width="27" height="23" viewBox="0 0 27 23" fill="none" xmlns="http://www.w3.org/2000/svg">
<g id="Group">
<path id="Vector" d="M7.10254 7.09541L10.803 9.28399C12.9601 10.5594 13.8217 10.5594 15.9801 9.28399L19.6806 7.09541" stroke="white" stroke-width="1.60714" stroke-linecap="round" stroke-linejoin="round"/>
<path id="Vector_2" d="M0.829078 13.3559C0.910835 17.2111 0.952342 19.1393 2.37492 20.5669C3.79749 21.9958 5.77728 22.0449 9.7381 22.1442C12.1782 22.2071 14.5957 22.2071 17.0359 22.1442C20.9967 22.0449 22.9765 21.9958 24.3991 20.5669C25.8216 19.1393 25.8631 17.2111 25.9462 13.3559C25.9713 12.1158 25.9713 10.8831 25.9462 9.64291C25.8631 5.78774 25.8216 3.85953 24.3991 2.43192C22.9765 1.00306 20.9967 0.954003 17.0359 0.854637C14.6037 0.793262 12.1703 0.793262 9.7381 0.854637C5.77728 0.954003 3.79749 1.00306 2.37492 2.43192C0.952342 3.85953 0.910835 5.78774 0.82782 9.64291C0.801341 10.8804 0.802599 12.1184 0.829078 13.3559Z" stroke="white" stroke-width="1.60714" stroke-linecap="round" stroke-linejoin="round"/>
</g>
</svg>
